<?xml version="1.0" encoding="UTF-8"?>
<svg version="1.1" xmlns="http://www.w3.org/2000/svg" width="433" height="433">
<path d="M0 0 C142.89 0 285.78 0 433 0 C433 142.89 433 285.78 433 433 C290.11 433 147.22 433 0 433 C0 290.11 0 147.22 0 0 Z " fill="#FEFEFE" transform="translate(0,0)"/>
<path d="M0 0 C17.90560472 4.47640118 17.90560472 4.47640118 24.1328125 6.10546875 C25.46611717 6.45258406 26.79945127 6.79958638 28.1328125 7.14648438 C30.14940062 7.67191596 32.16575993 8.19817867 34.18164062 8.72631836 C36.18558951 9.25090108 38.19037366 9.77218437 40.1953125 10.29296875 C41.36078613 10.5974292 42.52625977 10.90188965 43.72705078 11.21557617 C46.78805764 11.94920403 49.8951345 12.48252242 53 13 C53 92.86 53 172.72 53 255 C10 266 10 266 0 268 C0 179.56 0 91.12 0 0 Z " fill="#82CAC7" transform="translate(317,77)"/>
<path d="M0 0 C8.28408151 2.07102038 16.45153761 4.12184685 24.65234375 6.41015625 C27.75171026 7.18886564 30.83417667 7.58706652 34 8 C34.495 8.495 34.495 8.495 35 9 C37.51859228 9.5619518 40.02873303 10.07976773 42.5625 10.5625 C43.27341797 10.70107422 43.98433594 10.83964844 44.71679688 10.98242188 C46.47719932 11.32505054 48.23851797 11.66296553 50 12 C50 12.66 50 13.32 50 14 C50.99 14 51.98 14 53 14 C53 84.29 53 154.58 53 227 C44.83237095 229.3336083 37.12420632 231.4455651 28.8828125 233.14453125 C24.12002096 234.19387868 19.40527495 235.39076763 14.6875 236.625 C13.84421143 236.84341553 13.00092285 237.06183105 12.13208008 237.28686523 C8.25540759 238.03362174 8.25540759 238.03362174 5 240 C3.35 240 1.7 240 0 240 C0 160.8 0 81.6 0 0 Z " fill="#3358A5" transform="translate(62,91)"/>
<path d="M0 0 C0 46.53 0 93.06 0 141 C-19.67009876 136.37174147 -19.67009876 136.37174147 -26.28125 134.67578125 C-27.40690369 134.38818184 -27.40690369 134.38818184 -28.55529785 134.09477234 C-30.09747615 133.70005294 -31.63943175 133.30446235 -33.18115234 132.90795898 C-35.55340988 132.29878483 -37.9270661 131.69526328 -40.30078125 131.09179688 C-41.81519098 130.7034634 -43.32951738 130.31480478 -44.84375 129.92578125 C-45.9043866 129.65704948 -45.9043866 129.65704948 -46.9864502 129.38288879 C-51.88554864 128.11445136 -51.88554864 128.11445136 -53 127 C-53.09568576 125.51983606 -53.12188268 124.03511727 -53.12025452 122.55186462 C-53.12162918 121.5912764 -53.12300385 120.63068817 -53.12442017 119.64099121 C-53.12082489 118.57860229 -53.11722961 117.51621338 -53.11352539 116.42163086 C-53.11367142 115.30957779 -53.11381744 114.19752472 -53.1139679 113.05177307 C-53.11326821 109.35611049 -53.1054732 105.66049759 -53.09765625 101.96484375 C-53.09579227 99.41036507 -53.09436827 96.85588603 -53.09336853 94.30140686 C-53.08993344 88.2523829 -53.08204264 82.20338045 -53.07201904 76.15436512 C-53.06085683 69.26934846 -53.05534718 62.38433096 -53.05032361 55.49930751 C-53.03986 41.3328617 -53.02226123 27.16643183 -53 13 C-46.09674567 11.14163483 -39.19144761 9.29102039 -32.28466797 7.44580078 C-29.93490495 6.81705496 -27.58561699 6.18653094 -25.23681641 5.55419922 C-21.86223448 4.64604177 -18.48600038 3.74427563 -15.109375 2.84375 C-13.53261993 2.4172113 -13.53261993 2.4172113 -11.92401123 1.98205566 C-10.94329651 1.72178589 -9.96258179 1.46151611 -8.95214844 1.19335938 C-7.6597525 0.84694397 -7.6597525 0.84694397 -6.34124756 0.49353027 C-4 0 -4 0 0 0 Z " fill="#2DB7C1" transform="translate(286,163)"/>
<path d="M0 0 C17.44133022 3.87585116 34.72807969 8.4280211 52 13 C52 50.95 52 88.9 52 128 C3 141 3 141 0 141 C0 94.47 0 47.94 0 0 Z " fill="#487FC0" transform="translate(146,197)"/>
</svg>
