<?xml version="1.0" encoding="UTF-8"?>
<svg version="1.1" xmlns="http://www.w3.org/2000/svg" width="302" height="302">
<path d="M0 0 C5.39552695 5.08887996 10.07786474 10.53932117 14.5625 16.4375 C15.23925781 17.31019531 15.91601562 18.18289062 16.61328125 19.08203125 C27.71828928 33.80964384 35.51058731 50.1013827 40.875 67.6875 C41.11750488 68.47850098 41.36000977 69.26950195 41.60986328 70.08447266 C45.38065435 83.0117571 45.96808524 95.5674265 45.9375 108.9375 C45.93668427 110.27376434 45.93668427 110.27376434 45.93585205 111.63702393 C45.89930016 124.63516963 45.383705 136.92697953 41.5625 149.4375 C41.34819336 150.18999023 41.13388672 150.94248047 40.91308594 151.71777344 C34.41124724 174.36537169 22.53283816 195.14593428 6.5625 212.4375 C6.10149902 212.9423291 5.64049805 213.4471582 5.16552734 213.96728516 C-19.97925519 241.21111041 -57.11368702 258.9097602 -94.26782227 260.56347656 C-137.66409614 261.66733413 -176.83719678 248.90513138 -209 219.19140625 C-237.67705998 191.90232539 -254.32394108 154.27811534 -255.625 114.7421875 C-256.46230547 71.95238914 -240.46911943 33.58156703 -211.4375 2.4375 C-153.96908335 -56.5794668 -59.48053677 -53.55163946 0 0 Z " fill="#000000" transform="translate(256.4375,41.5625)"/>
<path d="M0 0 C1.64334842 0.01495253 3.28673292 0.0263253 4.93013 0.03430176 C9.22017846 0.06460078 13.50800106 0.14296186 17.79718018 0.23193359 C22.96229815 0.32883877 28.12816762 0.36501043 33.29393768 0.41156006 C41.11025882 0.4886959 48.92171311 0.64211702 56.73828125 0.78125 C56.73828125 14.31125 56.73828125 27.84125 56.73828125 41.78125 C50.2878125 41.80703125 43.83734375 41.8328125 37.19140625 41.859375 C33.10803297 41.88453771 29.02473419 41.91086611 24.94140625 41.94140625 C18.4583303 41.98978322 11.97542674 42.03381185 5.4921875 42.05224609 C0.26596502 42.06737595 -4.95980695 42.10175616 -10.18582916 42.14955902 C-12.18090146 42.16441075 -14.17603807 42.17229318 -16.17116547 42.17313385 C-18.96323331 42.17549386 -21.75404629 42.20249513 -24.54589844 42.23535156 C-25.3730838 42.2303212 -26.20026917 42.22529083 -27.05252075 42.22010803 C-30.69361091 42.28652076 -32.82391053 42.4510352 -35.77410889 44.6762085 C-37.50936639 47.13168365 -37.77595903 48.42225966 -37.79296875 51.40625 C-37.798125 52.27765625 -37.80328125 53.1490625 -37.80859375 54.046875 C-37.793125 54.94921875 -37.77765625 55.8515625 -37.76171875 56.78125 C-37.7771875 57.68359375 -37.79265625 58.5859375 -37.80859375 59.515625 C-37.81783022 64.8031846 -37.81783022 64.8031846 -35.35546875 69.34375 C-31.16393085 72.22152229 -27.53454327 71.9193913 -22.59277344 71.90722656 C-21.2461689 71.91002876 -21.2461689 71.91002876 -19.87236023 71.91288757 C-17.91838621 71.91689744 -15.96440748 71.91896695 -14.01042938 71.91934967 C-9.85715402 71.92275849 -5.70403616 71.94411381 -1.55081558 71.96458054 C6.18668393 72.002635 13.9240174 72.03386559 21.66162109 72.03173828 C27.03931107 72.03095128 32.41642786 72.05431269 37.7939682 72.0936203 C39.84322279 72.10408579 41.8925435 72.10560032 43.94181061 72.09796906 C46.81242337 72.08834736 49.68130162 72.10953025 52.55175781 72.13769531 C53.39666275 72.12749863 54.24156769 72.11730194 55.11207581 72.10679626 C59.27717426 72.17997371 61.9299939 72.51553468 65.22767639 75.18009949 C70.10858295 80.23703728 70.04660264 84.90148729 70.0390625 91.58984375 C70.04334763 92.43418472 70.04763275 93.2785257 70.05204773 94.14845276 C70.05777585 95.92944443 70.0583025 97.7104595 70.05395508 99.49145508 C70.05079574 102.20630052 70.07427043 104.92005479 70.09960938 107.63476562 C70.1018827 109.3697903 70.10258571 111.10481789 70.1015625 112.83984375 C70.11077225 113.64626816 70.11998199 114.45269257 70.12947083 115.28355408 C70.08388068 120.8770627 69.13939216 125.03014241 65.3347168 129.3894043 C64.85301025 129.79070557 64.37130371 130.19200684 63.875 130.60546875 C63.32497314 131.07106201 62.77494629 131.53665527 62.20825195 132.01635742 C61.62003662 132.49564697 61.03182129 132.97493652 60.42578125 133.46875 C59.80985107 133.98348877 59.1939209 134.49822754 58.55932617 135.02856445 C53.13724653 139.53078398 47.59470833 143.88162733 42.03125 148.20703125 C37.19285684 151.97425521 32.47344181 155.8857007 27.73828125 159.78125 C24.97099739 162.05644802 22.19944957 164.32634101 19.42578125 166.59375 C18.75562988 167.14530762 18.08547852 167.69686523 17.39501953 168.26513672 C9.88247673 174.39847485 4.69044845 177.94120252 -5.31323242 177.89477539 C-6.13297043 177.89492142 -6.95270844 177.89506744 -7.79728699 177.8952179 C-10.50811403 177.89452096 -13.21887245 177.88673878 -15.9296875 177.87890625 C-17.80870018 177.87704129 -19.68771335 177.87561776 -21.56672668 177.87461853 C-26.5134719 177.87079948 -31.46018777 177.86097438 -36.40692139 177.84991455 C-42.3415542 177.83788931 -48.27619681 177.83329528 -54.21083832 177.82746124 C-63.22781887 177.81776233 -72.24473504 177.79860148 -81.26171875 177.78125 C-81.26171875 164.25125 -81.26171875 150.72125 -81.26171875 136.78125 C-78.22831299 136.76143066 -75.19490723 136.74161133 -72.06958008 136.72119141 C-62.05114019 136.65430731 -52.03280451 136.57666738 -42.01448536 136.49372292 C-35.93993733 136.44376097 -29.86540669 136.39743074 -23.79077148 136.359375 C-17.92925362 136.32252117 -12.06788122 136.27616062 -6.20648766 136.22318649 C-3.96940345 136.20464313 -1.73228807 136.18953496 0.50484276 136.17790604 C3.63643692 136.16104287 6.76769798 136.13200706 9.89916992 136.10009766 C10.82561813 136.09793747 11.75206635 136.09577728 12.70658875 136.09355164 C18.95568332 136.02024848 18.95568332 136.02024848 24.73828125 133.78125 C26.36921678 129.92817734 26.03547153 125.48534893 26.11328125 121.34375 C26.16935547 120.21743164 26.16935547 120.21743164 26.2265625 119.06835938 C26.29362187 114.83244247 26.11509737 113.26077686 23.40234375 109.80859375 C18.87889842 106.36626512 14.77363661 106.63585524 9.32299805 106.6394043 C8.46412994 106.63592987 7.60526184 106.63245544 6.72036743 106.62887573 C4.85426672 106.62152188 2.98815727 106.61617452 1.12204552 106.61258507 C-1.832949 106.60541916 -4.78777751 106.58975155 -7.74272156 106.57124329 C-16.14478276 106.51877989 -24.54675313 106.47079716 -32.94897461 106.45532227 C-38.08786799 106.44523679 -43.22634386 106.41589789 -48.36507225 106.37400246 C-50.32221505 106.36169576 -52.27941684 106.35657059 -54.23659706 106.35880089 C-56.97760134 106.36115575 -59.71740943 106.33897361 -62.45825195 106.3112793 C-63.66714836 106.32118141 -63.66714836 106.32118141 -64.90046692 106.33128357 C-70.13929451 106.24451645 -73.0875372 105.21294484 -77.26171875 101.78125 C-81.56418706 96.85799185 -81.85422524 92.89892598 -81.79296875 86.65625 C-81.79870911 85.35856689 -81.79870911 85.35856689 -81.80456543 84.03466797 C-81.8072774 82.21255321 -81.79996641 80.39039904 -81.78320312 78.56835938 C-81.76178216 75.78947631 -81.78302797 73.01317827 -81.80859375 70.234375 C-81.80595035 68.45832766 -81.8008251 66.68228193 -81.79296875 64.90625 C-81.80106567 64.08108887 -81.8091626 63.25592773 -81.81750488 62.40576172 C-81.7178293 56.23160793 -80.03433888 52.6871151 -75.69702148 48.14135742 C-75.20145752 47.72732666 -74.70589355 47.3132959 -74.1953125 46.88671875 C-73.63303955 46.41081299 -73.0707666 45.93490723 -72.49145508 45.44458008 C-71.90001709 44.95755615 -71.3085791 44.47053223 -70.69921875 43.96875 C-70.08006592 43.44885498 -69.46091309 42.92895996 -68.82299805 42.39331055 C-66.97640277 40.84707512 -65.12085879 39.31236643 -63.26171875 37.78125 C-61.78832031 36.56308594 -61.78832031 36.56308594 -60.28515625 35.3203125 C-57.61883018 33.13039051 -54.94238643 30.95358366 -52.26171875 28.78125 C-45.11181676 22.9788679 -45.11181676 22.9788679 -38.06640625 17.05078125 C-37.51645996 16.5801123 -36.96651367 16.10944336 -36.39990234 15.62451172 C-34.86114733 14.30407187 -33.32689865 12.97838578 -31.79296875 11.65234375 C-31.2448201 11.21087509 -30.69667145 10.76940643 -30.13191223 10.31455994 C-28.75287459 9.18393247 -27.4206567 7.99562233 -26.11747742 6.77833557 C-17.8082225 -0.30029089 -10.32156329 -0.27845514 0 0 Z " fill="#FDFDFD" transform="translate(159.26171875,62.21875)"/>
</svg>
