<?xml version="1.0" encoding="UTF-8"?>
<svg version="1.1" xmlns="http://www.w3.org/2000/svg" width="3840" height="2716">
<path d="M0 0 C58.95750027 -0.27458137 117.9149786 -0.48609687 176.87298545 -0.61278395 C183.831259 -0.62775194 190.78953118 -0.64331059 197.74780273 -0.65917969 C198.44023291 -0.6607488 199.13266309 -0.6623179 199.846076 -0.66393456 C222.28820168 -0.71506726 244.72996469 -0.80519979 267.17187067 -0.91556665 C290.88855601 -1.03199083 314.60493593 -1.10395541 338.32191235 -1.12906194 C352.53007422 -1.14553929 366.73719494 -1.19760543 380.94503636 -1.2949976 C390.68389718 -1.3583608 400.42221867 -1.37761704 410.16127073 -1.36201653 C415.78321485 -1.35431906 421.40333812 -1.36623128 427.02495956 -1.4304657 C432.17242496 -1.48885324 437.31684531 -1.49182944 442.46445072 -1.45078674 C444.32603266 -1.44571463 446.18780431 -1.46095846 448.04901259 -1.49859819 C461.93767551 -1.76313308 461.93767551 -1.76313308 467.01156056 2.57465887 C469.32836344 5.61858769 471.17570729 8.64332474 473 12 C474.27455966 13.84800378 475.56709405 15.68390227 476.88671875 17.5 C478.15581154 19.33183482 479.4226902 21.16520532 480.6875 23 C482.08437572 25.01710695 483.48151598 27.03403073 484.87890625 29.05078125 C485.57000488 30.04932129 486.26110352 31.04786133 486.97314453 32.07666016 C490.0099395 36.45663882 493.06608863 40.82295044 496.125 45.1875 C496.69436279 46.00025391 497.26372559 46.81300781 497.8503418 47.65039062 C498.99419264 49.28311796 500.13815369 50.91576808 501.28222656 52.54833984 C504.1896209 56.69786428 507.09468001 60.84902306 510 65 C511.16665575 66.66667431 512.33332241 68.33334098 513.5 70 C571.25 152.5 629 235 746.25048828 402.50073242 C747.41548364 404.16498828 748.5805226 405.82921361 749.74560547 407.4934082 C752.68820411 411.69670923 755.63000904 415.90056181 758.5703125 420.10546875 C764.03176431 427.91438668 769.49959932 435.7184538 775 443.5 C781.10075439 452.1308807 787.16098513 460.78989054 793.21777344 469.45166016 C796.14376733 473.6354306 799.0719831 477.81764524 802 482 C803.16667759 483.66665902 804.33334425 485.33332569 805.5 487 C806.36625 488.2375 806.36625 488.2375 807.25 489.5 C922.75000042 654.5000006 922.75000042 654.5000006 1122.25048828 939.50073242 C1123.41548364 941.16498828 1124.5805226 942.82921361 1125.74560547 944.4934082 C1128.68820411 948.69670923 1131.63000904 952.90056181 1134.5703125 957.10546875 C1140.03176431 964.91438668 1145.49959932 972.7184538 1151 980.5 C1157.10075439 989.1308807 1163.16098513 997.78989054 1169.21777344 1006.45166016 C1172.14376733 1010.6354306 1175.0719831 1014.81764524 1178 1019 C1179.16667759 1020.66665902 1180.33334425 1022.33332569 1181.5 1024 C1182.0775 1024.825 1182.655 1025.65 1183.25 1026.5 C1241 1109 1298.75 1191.5 1482.5 1454 C1483.07862793 1454.82653076 1483.65725586 1455.65306152 1484.25341797 1456.50463867 C1485.40899787 1458.15562864 1486.56427606 1459.80682983 1487.71923828 1461.45825195 C1490.80296989 1465.86663603 1493.89328716 1470.27023148 1496.9921875 1474.66796875 C1497.641875 1475.59158203 1498.2915625 1476.51519531 1498.9609375 1477.46679688 C1500.21685115 1479.25198842 1501.47460329 1481.03588827 1502.734375 1482.81835938 C1503.29382812 1483.61435547 1503.85328125 1484.41035156 1504.4296875 1485.23046875 C1504.92710449 1485.93582764 1505.42452148 1486.64118652 1505.93701172 1487.36791992 C1507 1489 1507 1489 1507 1490 C1447.96633682 1490.38910431 1388.9327043 1490.68869476 1329.89802827 1490.8681106 C1322.92859862 1490.88931488 1315.95917173 1490.91135635 1308.98974609 1490.93383789 C1308.29621335 1490.93606079 1307.60268061 1490.9382837 1306.88813172 1490.94057396 C1284.41827813 1491.01298637 1261.94915244 1491.14065409 1239.47973964 1491.29705275 C1215.72962464 1491.46206506 1191.98007282 1491.56395354 1168.22938609 1491.59950441 C1154.00388551 1491.62283226 1139.78047482 1491.69650493 1125.5556176 1491.83457994 C1115.80120076 1491.92443941 1106.04786431 1491.9516035 1096.29306361 1491.92952342 C1090.66395309 1491.91863194 1085.03849338 1491.93532134 1079.41003227 1492.02649307 C1074.25219061 1492.10943042 1069.10044008 1492.11330392 1063.94231376 1492.05528121 C1062.08061665 1492.04811558 1060.21853471 1492.06954541 1058.35759178 1492.1230141 C1044.83317412 1492.48888582 1044.83317412 1492.48888582 1040.08775395 1488.32013075 C1036.5070671 1484.23117002 1033.73707195 1479.74016819 1031.11993572 1474.99199396 C1029.67354032 1472.41933657 1027.99859274 1470.04859868 1026.2578125 1467.66796875 C1025.21318892 1466.17472588 1024.16891295 1464.68123976 1023.125 1463.1875 C1021.94011372 1461.4934829 1020.7552176 1459.79947269 1019.5703125 1458.10546875 C1018.68520996 1456.83968994 1018.68520996 1456.83968994 1017.78222656 1455.54833984 C1014.85623267 1451.3645694 1011.9280169 1447.18235476 1009 1443 C1007.83332241 1441.33334098 1006.66665575 1439.66667431 1005.5 1438 C1004.63375 1436.7625 1004.63375 1436.7625 1003.75 1435.5 C888.24999979 1270.4999997 888.24999979 1270.4999997 814.74951172 1165.49926758 C813.58451636 1163.83501172 812.4194774 1162.17078639 811.25439453 1160.5065918 C808.31179589 1156.30329077 805.36999096 1152.09943819 802.4296875 1147.89453125 C796.96823569 1140.08561332 791.50040068 1132.2815462 786 1124.5 C779.89924561 1115.8691193 773.83901487 1107.21010946 767.78222656 1098.54833984 C764.85623267 1094.3645694 761.9280169 1090.18235476 759 1086 C757.83332241 1084.33334098 756.66665575 1082.66667431 755.5 1081 C754.63375 1079.7625 754.63375 1079.7625 753.75 1078.5 C696 996 638.25 913.5 424.74951172 608.49926758 C423.58451636 606.83501172 422.4194774 605.17078639 421.25439453 603.5065918 C418.31179589 599.30329077 415.36999096 595.09943819 412.4296875 590.89453125 C406.96823569 583.08561332 401.50040068 575.2815462 396 567.5 C389.89924561 558.8691193 383.83901487 550.21010946 377.78222656 541.54833984 C374.85623267 537.3645694 371.9280169 533.18235476 369 529 C367.83332241 527.33334098 366.66665575 525.66667431 365.5 524 C364.9225 523.175 364.345 522.35 363.75 521.5 C306 439 248.25 356.5 48.74951172 71.49926758 C47.58451636 69.83501172 46.4194774 68.17078639 45.25439453 66.5065918 C42.31179589 62.30329077 39.36999096 58.09943819 36.4296875 53.89453125 C30.96823236 46.08560855 25.49962069 38.282101 20 30.5 C19.03642265 29.13413976 18.07288149 27.76825398 17.109375 26.40234375 C15.44946907 24.04972545 13.7864856 21.69940587 12.11914062 19.35205078 C10.15863565 16.59176429 8.20401101 13.82738602 6.25 11.0625 C5.62867188 10.19109375 5.00734375 9.3196875 4.3671875 8.421875 C3.79742188 7.61363281 3.22765625 6.80539062 2.640625 5.97265625 C1.87540527 4.89383179 1.87540527 4.89383179 1.09472656 3.79321289 C0 2 0 2 0 0 Z " fill="#000000" transform="translate(919,966)"/>
<path d="M0 0 C0.66 0 1.32 0 2 0 C2.09500415 18.08314493 1.8160099 36.15425782 1.47091467 54.23313666 C1.39122055 58.43375775 1.3140611 62.6344256 1.23655596 66.83508754 C1.1002257 74.2054941 0.9623167 81.57586978 0.82335026 88.94622709 C0.61531851 99.9800235 0.40978528 111.01386551 0.20472008 122.0477174 C-0.14493674 140.85763635 -0.49662541 159.66751682 -0.84943199 178.47737694 C-1.20681053 197.53137441 -1.56325276 216.58538906 -1.91856003 235.63942528 C-1.94102736 236.84424419 -1.96349469 238.0490631 -1.98664285 239.29039167 C-2.07815047 244.19768544 -2.1696515 249.10497933 -2.26114416 254.01227338 C-3.1127888 299.69092725 -3.96655194 345.36954134 -4.82168388 391.04813004 C-4.83434128 391.72425158 -4.84699867 392.40037313 -4.86003962 393.09698322 C-4.88564237 394.46460819 -4.91124512 395.83223316 -4.93684788 397.19985814 C-4.9495359 397.87761526 -4.96222392 398.55537238 -4.97529642 399.2536676 C-4.98799349 399.93190781 -5.00069055 400.61014802 -5.01377238 401.30894097 C-5.1553358 408.87086688 -5.2968937 416.43279289 -5.43844485 423.99471903 C-5.45122566 424.67748945 -5.46400646 425.36025988 -5.47717457 426.06372032 C-6.06985419 457.72588303 -6.66158356 489.38806347 -7.25310627 521.05024781 C-7.31766794 524.50599398 -7.38223147 527.96174012 -7.44679484 531.41748627 C-7.64140469 541.83398174 -7.83601215 552.25047726 -8.03061428 562.66697289 C-8.62402477 594.4305108 -9.21758414 626.19404594 -9.81127262 657.95757866 C-9.82449088 658.66478467 -9.83770914 659.37199068 -9.85132795 660.10062717 C-10.70721159 705.89214453 -11.56376285 751.68364938 -12.42079067 797.47514534 C-12.44842886 798.95187644 -12.47606704 800.42860755 -12.50370523 801.90533865 C-12.80881283 818.20745337 -13.11393553 834.5095678 -13.4190644 850.81168212 C-13.43283701 851.54751137 -13.44660962 852.28334062 -13.46079959 853.04146772 C-13.58612118 859.73701977 -13.7114429 866.43257182 -13.83676547 873.12812386 C-15.22209038 947.14130713 -16.60664235 1021.15450473 -19.07477725 1153.32349402 C-19.53159081 1177.78939408 -19.98841105 1202.25529402 -20.44526577 1226.72119331 C-20.45890561 1227.45164982 -20.47254546 1228.18210632 -20.48659863 1228.93469788 C-21.34112157 1274.69703044 -22.19620464 1320.45935251 -23.05193424 1366.22166252 C-23.06515488 1366.92867217 -23.07837551 1367.63568183 -23.09199677 1368.36411601 C-23.68569867 1400.1138756 -24.27955084 1431.86363237 -24.87354226 1463.61338654 C-25.06836591 1474.02702179 -25.26318229 1484.44065717 -25.45799598 1494.85429261 C-25.52261819 1498.30862879 -25.58724099 1501.76296495 -25.65186521 1505.21730109 C-26.24417608 1536.87796695 -26.83618454 1568.53863843 -27.42722964 1600.19932795 C-27.44633007 1601.2224803 -27.44633007 1601.2224803 -27.46581636 1602.2663024 C-27.63239698 1611.18957709 -27.79896305 1620.11285206 -27.96552708 1629.03612707 C-27.978154 1629.71258424 -27.99078091 1630.38904141 -28.00379046 1631.08599728 C-28.02926509 1632.45074105 -28.05473969 1633.81548482 -28.08021425 1635.18022858 C-28.9432619 1681.41594642 -29.80800147 1727.65163238 -30.6747809 1773.88728042 C-30.76654024 1778.78224294 -30.8582924 1783.67720559 -30.95003891 1788.57216835 C-30.97255536 1789.77345519 -30.99507182 1790.97474202 -31.01827059 1792.21243149 C-31.37431293 1811.21001055 -31.72882691 1830.20761781 -32.08270112 1849.20523737 C-32.43095909 1867.89959757 -32.78086007 1886.59392644 -33.13249155 1905.2882235 C-33.33840281 1916.23794897 -33.54307996 1927.1876958 -33.74589248 1938.13747912 C-33.88100215 1945.4251801 -34.01779416 1952.7128483 -34.15590844 1960.00049295 C-34.23396402 1964.12152956 -34.31135144 1968.24257525 -34.38664925 1972.36366326 C-34.45540375 1976.12587275 -34.52638027 1979.88803443 -34.5989074 1983.65017303 C-34.63573247 1985.58679208 -34.67039122 1987.52345199 -34.70487004 1989.46011424 C-34.97654455 2003.31503949 -35.52224773 2017.1451842 -36 2031 C-136.65 2031 -237.3 2031 -341 2031 C-341.54640137 2009.57328369 -342.09280273 1988.14656738 -342.65576172 1966.07055664 C-343.03221189 1951.34117451 -343.408768 1936.61179521 -343.78591919 1921.88243103 C-343.81021258 1920.93362925 -343.83450597 1919.98482747 -343.85953552 1919.00727412 C-344.17628795 1906.63640136 -344.4931593 1894.26553165 -344.81011008 1881.89466397 C-344.97321262 1875.52846698 -345.13626401 1869.16226869 -345.29927285 1862.7960693 C-347.80334472 1765.00216452 -350.3238836 1667.20870649 -355.10469126 1487.21860698 C-355.53830211 1470.92595665 -355.97180727 1454.63330351 -356.40509131 1438.34064448 C-356.4448189 1436.84678025 -356.48454749 1435.35291605 -356.52427708 1433.85905187 C-357.77082106 1386.9875332 -359.00834439 1340.11578373 -360.23662337 1293.24378285 C-360.29660003 1290.95505452 -360.35658242 1288.66632633 -360.41656587 1286.37759818 C-361.22084659 1255.68863549 -362.02391355 1224.99964115 -362.82505881 1194.31059644 C-363.2483562 1178.09563627 -363.67197939 1161.88068462 -364.09598941 1145.66574307 C-364.15673974 1143.34247333 -364.21748109 1141.01920335 -364.27822226 1138.69593337 C-365.22499758 1102.48629511 -366.17930704 1066.27687173 -367.15246582 1030.06793213 C-367.17382798 1029.27308375 -367.19519014 1028.47823537 -367.21719964 1027.65930067 C-367.56267717 1014.80609519 -367.90868886 1001.95290409 -368.2547756 989.099715 C-369.25337793 952.01271373 -370.24753816 914.9256164 -371.21284294 877.83773136 C-371.23264617 877.0769562 -371.2524494 876.31618105 -371.27285273 875.5323521 C-371.70700331 858.85071738 -372.13891553 842.1690255 -372.56869493 825.48727762 C-372.74131237 818.78872829 -372.91425347 812.09018732 -373.08730698 805.39164925 C-373.10621753 804.65935982 -373.12512808 803.9270704 -373.14461168 803.17259038 C-373.7494167 779.75843014 -374.38030492 756.34506577 -375.02560639 732.93198929 C-375.686468 708.95027489 -376.31838566 684.96799546 -376.91589715 660.98461246 C-377.25995219 647.21143504 -377.62719496 633.43932914 -378.02754618 619.66767067 C-378.29218072 610.48652472 -378.52682239 601.30493239 -378.73684359 592.12237553 C-378.85728743 586.8939994 -378.99088273 581.66687212 -379.16111816 576.43986004 C-379.31563939 571.68764443 -379.43181264 566.93608175 -379.51762988 562.18214319 C-379.55511408 560.47570893 -379.60646891 558.7695073 -379.67353072 557.06397933 C-380.10437013 545.85572232 -378.3718154 538.8886702 -371 530 C-369.86853406 528.39539037 -368.74870103 526.78241341 -367.6484375 525.15625 C-366.55866948 523.60319895 -365.46749368 522.05113489 -364.375 520.5 C-363.15360872 518.76044272 -361.93225565 517.02085862 -360.7109375 515.28125 C-359.78812988 513.96833984 -359.78812988 513.96833984 -358.84667969 512.62890625 C-355.89230738 508.42310495 -352.94645418 504.21135031 -350 500 C-348.83337706 498.33330272 -347.66671033 496.6666361 -346.5 495 C-345.63375 493.7625 -345.63375 493.7625 -344.75 492.5 C-343 490 -341.25 487.5 -339.5 485 C-338.6335083 483.76213745 -338.6335083 483.76213745 -337.74951172 482.49926758 C-336.58451636 480.83501172 -335.4194774 479.17078639 -334.25439453 477.5065918 C-331.31179589 473.30329077 -328.36999096 469.09943819 -325.4296875 464.89453125 C-319.48305871 456.39189535 -313.52321098 447.89909294 -307.53417969 439.42626953 C-301.92414591 431.48520192 -296.35389765 423.51634681 -290.78222656 415.54833984 C-287.85623267 411.3645694 -284.9280169 407.18235476 -282 403 C-280.83332241 401.33334098 -279.66665575 399.66667431 -278.5 398 C-220.75 315.5 -163 233 -31.7487793 45.49829102 C-30.58613792 43.83735157 -29.42354002 42.17638169 -28.26098633 40.51538086 C-25.28309486 36.26083271 -22.30437018 32.00687175 -19.32421875 27.75390625 C-18.7199707 26.89120117 -18.11572266 26.02849609 -17.49316406 25.13964844 C-16.30450639 23.44312729 -15.11507349 21.74714899 -13.92480469 20.05175781 C-11.32006268 16.33728564 -8.72922985 12.6160536 -6.19140625 8.85546875 C-5.56455933 7.93109009 -5.56455933 7.93109009 -4.92504883 6.98803711 C-3.83514811 5.3759442 -2.7531701 3.75850263 -1.671875 2.140625 C-1.12015625 1.43421875 -0.5684375 0.7278125 0 0 Z " fill="#000000" transform="translate(2919,425)"/>
<path d="M0 0 C5.69647269 0.08231556 11.39255341 0.05426692 17.08945382 0.03985679 C26.95038545 0.0299099 36.80892237 0.08934431 46.66925156 0.19637573 C60.92506574 0.35101803 75.17972602 0.40029518 89.43628802 0.42414757 C112.56781447 0.46569699 135.69798041 0.59187961 158.82880318 0.7718972 C181.29357972 0.94652885 203.75801467 1.0810536 226.22333443 1.16154563 C227.26287367 1.16529413 227.26287367 1.16529413 228.3234137 1.16911835 C235.28335709 1.19417122 242.24330312 1.21841154 249.20325142 1.24205668 C307.52923392 1.44028452 365.85393134 1.77542137 424.1786567 2.20524681 C422.81976079 4.97037628 421.37746085 7.50821832 419.6317817 10.04899681 C418.87006661 11.16069236 418.87006661 11.16069236 418.09296334 12.29484642 C417.54374215 13.09027854 416.99452096 13.88571067 416.4286567 14.70524681 C415.85300972 15.54257347 415.27736275 16.37990013 414.68427193 17.24260032 C408.81920896 25.7583959 402.887262 34.22727419 396.94476998 42.68913352 C394.01843806 46.85816542 391.0988757 51.03193201 388.1786567 55.20524681 C387.01202281 56.87193641 385.84535613 58.53860308 384.6786567 60.20524681 C384.1011567 61.03024681 383.5236567 61.85524681 382.9286567 62.70524681 C325.1786567 145.20524681 267.4286567 227.70524681 153.6786567 390.20524681 C152.812165 391.44310935 152.812165 391.44310935 151.92816842 392.70597923 C150.76317306 394.37023508 149.5981341 396.03446042 148.43305123 397.69865501 C145.49045258 401.90195604 142.54864766 406.10580861 139.6083442 410.31071556 C133.66171541 418.81335146 127.70186767 427.30615386 121.71283638 435.77897727 C116.10280261 443.72004488 110.53255435 451.6889 104.96088326 459.65690696 C102.03488937 463.84067741 99.10667359 468.02289204 96.1786567 472.20524681 C95.0119791 473.87190582 93.84531244 475.5385725 92.6786567 477.20524681 C34.9286567 559.70524681 -22.8213433 642.20524681 -264.3213433 987.20524681 C-264.89900444 988.03048851 -265.47666557 988.8557302 -266.07183158 989.70597923 C-267.23682694 991.37023508 -268.4018659 993.03446042 -269.56694877 994.69865501 C-272.50954742 998.90195604 -275.45135234 1003.10580861 -278.3916558 1007.31071556 C-284.33828459 1015.81335146 -290.29813233 1024.30615386 -296.28716362 1032.77897727 C-301.89719739 1040.72004488 -307.46744565 1048.6889 -313.03911674 1056.65690696 C-315.96511063 1060.84067741 -318.89332641 1065.02289204 -321.8213433 1069.20524681 C-322.9880209 1070.87190582 -324.15468756 1072.5385725 -325.3213433 1074.20524681 C-383.0713433 1156.70524681 -440.8213433 1239.20524681 -502.07256401 1326.70695579 C-503.23520539 1328.36789524 -504.39780329 1330.02886512 -505.56035697 1331.68986595 C-508.53824844 1335.9444141 -511.51697313 1340.19837505 -514.49712455 1344.45134056 C-520.96558388 1353.68411348 -527.42036558 1362.92552249 -533.8213433 1372.20524681 C-537.9777562 1370.81977584 -539.32490528 1367.90436977 -541.6338433 1364.39274681 C-542.62240368 1362.92200663 -543.612037 1361.45198721 -544.6025933 1359.98259056 C-545.12595268 1359.20254661 -545.64931205 1358.42250267 -546.1885308 1357.61882102 C-548.95464562 1353.53003348 -551.79578804 1349.49427674 -554.6338433 1345.45524681 C-555.82793646 1343.75217982 -557.02194609 1342.04905426 -558.21587455 1340.34587181 C-559.11040336 1339.07066673 -559.11040336 1339.07066673 -560.02300346 1337.76969993 C-562.95859315 1333.58351556 -565.8897794 1329.39425088 -568.8213433 1325.20524681 C-569.98798811 1323.53856484 -571.1546548 1321.87189819 -572.3213433 1320.20524681 C-691.32134329 1150.20524682 -691.32134329 1150.20524682 -693.07183158 1147.70451438 C-694.23682694 1146.04025853 -695.4018659 1144.3760332 -696.56694877 1142.7118386 C-699.50954742 1138.50853758 -702.45135234 1134.304685 -705.3916558 1130.09977806 C-710.85310761 1122.29086012 -716.32094262 1114.48679301 -721.8213433 1106.70524681 C-727.91787599 1098.08033864 -733.97356225 1089.42709725 -740.02593315 1080.77116477 C-742.42494935 1077.34260069 -744.82828131 1073.91707191 -747.23174369 1070.49162376 C-748.97902517 1067.99780493 -750.72074972 1065.50017618 -752.4619683 1063.00212181 C-754.67680693 1059.82743423 -756.91773302 1056.67389545 -759.1807183 1053.53337181 C-760.2068167 1052.09070382 -761.23286126 1050.64799754 -762.2588433 1049.20524681 C-762.73797172 1048.55265892 -763.21710014 1047.90007102 -763.7107476 1047.22770774 C-766.87543475 1042.74066972 -766.87543475 1042.74066972 -766.62896049 1040.30094993 C-765.6379768 1037.72942514 -764.3070431 1035.73892731 -762.71587455 1033.48649681 C-762.06924858 1032.56457542 -761.4226226 1031.64265403 -760.7564019 1030.69279563 C-759.70573539 1029.21395896 -759.70573539 1029.21395896 -758.6338433 1027.70524681 C-757.91277397 1026.68003929 -757.19170463 1025.65483177 -756.44878471 1024.59855735 C-754.96060163 1022.48319508 -753.47002464 1020.36951502 -751.97710502 1018.2574929 C-749.44053856 1014.6660825 -746.92020584 1011.06355551 -744.40215385 1007.45915306 C-742.6871529 1005.00459323 -740.96951451 1002.55190057 -739.2510308 1000.09977806 C-736.35777349 995.97115103 -733.46613117 991.84139696 -730.57524955 987.71110618 C-728.82672599 985.21293721 -727.07794133 982.71495115 -725.3291558 980.21696556 C-722.96886206 976.84521149 -720.6095942 973.4727427 -718.2510308 970.09977806 C-712.30440201 961.59714215 -706.34455428 953.10433975 -700.35552299 944.63151634 C-694.74548922 936.69044873 -689.17524095 928.72159361 -683.60356987 920.75358665 C-680.67757597 916.5698162 -677.7493602 912.38760157 -674.8213433 908.20524681 C-673.65466571 906.53858779 -672.48799905 904.87192112 -671.3213433 903.20524681 C-613.5713433 820.70524681 -555.8213433 738.20524681 -286.3213433 353.20524681 C-285.74368217 352.38000511 -285.16602104 351.55476341 -284.57085502 350.70451438 C-283.40585967 349.04025853 -282.2408207 347.3760332 -281.07573783 345.7118386 C-278.13313919 341.50853758 -275.19133426 337.304685 -272.2510308 333.09977806 C-266.30440201 324.59714215 -260.34455428 316.10433975 -254.35552299 307.63151634 C-248.74548922 299.69044873 -243.17524095 291.72159361 -237.60356987 283.75358665 C-234.67757597 279.5698162 -231.7493602 275.38760157 -228.8213433 271.20524681 C-227.65466571 269.53858779 -226.48799905 267.87192112 -225.3213433 266.20524681 C-78.3213433 56.2052468 -78.3213433 56.2052468 -76.57109916 53.70500267 C-75.4051152 52.03924156 -74.23926221 50.37338877 -73.07354057 48.70744407 C-70.14749877 44.52615854 -67.21915846 40.34651879 -64.28618705 36.17009056 C-63.6951519 35.32768821 -63.10411674 34.48528587 -62.49517143 33.61735618 C-61.4075262 32.06724763 -60.31910724 30.51768137 -59.22954643 28.96891868 C-58.71198783 28.2309304 -58.19442924 27.49294212 -57.66118705 26.73259056 C-57.07735095 25.97473668 -56.49351484 25.2168828 -55.89198673 24.43606365 C-54.12988677 21.68666597 -53.21221315 19.60851602 -52.15515697 16.58504856 C-43.27065547 -4.92562163 -19.50598865 -0.35347378 0 0 Z " fill="#000000" transform="translate(2496.8213433027267,256.7947531938553)"/>
<path d="M0 0 C3.41018675 1.13672892 3.77291208 1.73132016 5.6796875 4.62109375 C6.18967285 5.38252686 6.6996582 6.14395996 7.22509766 6.9284668 C7.76956543 7.75644775 8.3140332 8.58442871 8.875 9.4375 C10.04482697 11.18366546 11.21675608 12.92842419 12.390625 14.671875 C12.98939453 15.56197266 13.58816406 16.45207031 14.20507812 17.36914062 C16.93247501 21.36675064 19.77219495 25.27886165 22.625 29.1875 C27.10226653 35.33999321 31.48110458 41.54662953 35.77270508 47.82983398 C39.41637008 53.16223405 43.10543582 58.46149355 46.8125 63.75 C47.401521 64.59030762 47.99054199 65.43061523 48.59741211 66.29638672 C49.79865703 68.00956009 51.00007396 69.72261286 52.20166016 71.43554688 C55.13724984 75.62173125 58.06843609 79.81099592 61 84 C62.16664481 85.66668197 63.3333115 87.33334862 64.5 89 C108.83333333 152.33333333 153.16666667 215.66666667 197.5 279 C198.0777417 279.82532227 198.6554834 280.65064453 199.25073242 281.50097656 C200.41504511 283.16432683 201.57927065 284.82773809 202.7434082 286.49121094 C206.29455552 291.56527227 209.84871441 296.63720244 213.40625 301.70678711 C214.58200151 303.38548824 215.75523339 305.06595728 216.92578125 306.74829102 C219.70630858 310.74410876 222.51167857 314.71392909 225.39453125 318.63671875 C225.91958252 319.36407227 226.44463379 320.09142578 226.9855957 320.84082031 C227.96814773 322.20115512 228.96467869 323.55154245 229.97729492 324.88964844 C233.1051104 329.26777024 233.1051104 329.26777024 232.65234375 332.421875 C230.2569684 336.15934008 227.70951175 339.74943434 225.0625 343.3125 C223.87352981 344.93512166 222.68605441 346.55883958 221.5 348.18359375 C220.90703125 348.99554199 220.3140625 349.80749023 219.703125 350.64404297 C217.26565901 354.01582433 214.90612748 357.43759202 212.5625 360.875 C208.47542277 366.86034413 204.34762279 372.81515908 200.1875 378.75 C199.30396851 380.01046143 199.30396851 380.01046143 198.40258789 381.29638672 C197.20134297 383.00956009 195.99992604 384.72261286 194.79833984 386.43554688 C191.86275016 390.62173125 188.93156391 394.81099592 186 399 C184.83335519 400.66668197 183.6666885 402.33334862 182.5 404 C181.9225 404.825 181.345 405.65 180.75 406.5 C169.66666667 422.33333333 158.58333333 438.16666667 147.5 454 C146.6335083 455.23786255 146.6335083 455.23786255 145.74951172 456.50073242 C144.58451636 458.16498828 143.4194774 459.82921361 142.25439453 461.4934082 C139.31179589 465.69670923 136.36999096 469.90056181 133.4296875 474.10546875 C127.48305871 482.60810465 121.52321098 491.10090706 115.53417969 499.57373047 C109.92414591 507.51479808 104.35389765 515.48365319 98.78222656 523.45166016 C95.85623267 527.6354306 92.9280169 531.81764524 90 536 C88.83332241 537.66665902 87.66665575 539.33332569 86.5 541 C37.5 610.99999999 37.5 610.99999999 35.74926758 613.50097656 C34.58495489 615.16432683 33.42072935 616.82773809 32.2565918 618.49121094 C29.30462804 622.70912809 26.35106366 626.92590872 23.39453125 631.140625 C22.79447266 631.9965625 22.19441406 632.8525 21.57617188 633.734375 C20.46217678 635.32332924 19.34766235 636.91191962 18.23242188 638.5 C17.70841797 639.24765625 17.18441406 639.9953125 16.64453125 640.765625 C16.10410763 641.5067582 15.56368401 642.24789141 15.00688392 643.01148319 C13.46318806 645.31025144 12.18305377 647.50454637 10.90496367 649.94352627 C5.01579053 660.57991866 5.01579053 660.57991866 0.03479005 662.9253819 C-5.54500603 664.38463587 -11.25815227 664.07843292 -16.97599792 663.92407227 C-18.90356051 663.93105658 -20.83110818 663.94507912 -22.75857526 663.96549892 C-28.03741612 664.00118015 -33.31103651 663.93744175 -38.58921206 663.85704994 C-44.28708897 663.78781979 -49.98468204 663.81134553 -55.68286133 663.82348633 C-65.54899317 663.83186797 -75.41342944 663.78175885 -85.27913475 663.69168091 C-99.54290181 663.56153178 -113.80585072 663.51996662 -128.07014719 663.49987304 C-151.21367463 663.46487252 -174.35623858 663.35858085 -197.49926758 663.20703125 C-219.97773556 663.0600037 -242.45596173 662.94670428 -264.93481445 662.87890625 C-265.97474827 662.87574962 -265.97474827 662.87574962 -267.03569085 662.87252922 C-273.99819421 662.85143231 -280.96069944 662.83101937 -287.92320629 662.81110748 C-346.28273776 662.64414248 -404.64135899 662.361888 -463 662 C-462.22140667 660.57358706 -461.43970925 659.14886823 -460.65673828 657.72485352 C-460.22177032 656.93127945 -459.78680237 656.13770538 -459.33865356 655.32008362 C-457.4231166 652.00017617 -455.19359383 648.9830135 -452.875 645.9375 C-449.03711668 640.79888155 -445.30098412 635.61143487 -441.6875 630.3125 C-437.55907994 624.26436833 -433.39113199 618.24614385 -429.1875 612.25 C-428.59864014 611.40993408 -428.00978027 610.56986816 -427.40307617 609.7043457 C-426.20167417 607.99092421 -425.0000945 606.27762729 -423.79833984 604.56445312 C-420.86275016 600.37826875 -417.93156391 596.18900408 -415 592 C-413.83335519 590.33331803 -412.6666885 588.66665138 -411.5 587 C-410.9225 586.175 -410.345 585.35 -409.75 584.5 C-323.125 460.75 -323.125 460.75 -166.5 237 C-165.92233887 236.1747583 -165.34467773 235.3495166 -164.74951172 234.49926758 C-163.58451636 232.83501172 -162.4194774 231.17078639 -161.25439453 229.5065918 C-158.31179589 225.30329077 -155.36999096 221.09943819 -152.4296875 216.89453125 C-146.48305871 208.39189535 -140.52321098 199.89909294 -134.53417969 191.42626953 C-128.92414591 183.48520192 -123.35389765 175.51634681 -117.78222656 167.54833984 C-114.85623267 163.3645694 -111.9280169 159.18235476 -109 155 C-107.83332241 153.33334098 -106.66665575 151.66667431 -105.5 150 C-79.83333333 113.33333333 -54.16666667 76.66666667 -28.5 40 C-27.92169434 39.1737915 -27.34338867 38.34758301 -26.74755859 37.49633789 C-25.58924872 35.84172508 -24.43072261 34.18726363 -23.27197266 32.53295898 C-20.22559073 28.18313074 -17.18380788 23.83017714 -14.1484375 19.47265625 C-13.51679687 18.56708984 -12.88515625 17.66152344 -12.234375 16.72851562 C-11.02725285 14.99771548 -9.82144585 13.26599708 -8.6171875 11.53320312 C-5.86035573 7.58326138 -3.0752776 3.71283515 0 0 Z " fill="#000000" transform="translate(1382,1794)"/>
</svg>
